<svg width="30" height="30" viewBox="0 0 30 30" fill="none" xmlns="http://www.w3.org/2000/svg">
<path d="M25.5 7.89474C26.2957 7.89474 27.0587 8.22744 27.6213 8.81966C28.1839 9.41188 28.5 10.2151 28.5 11.0526V21.7263C29.415 22.5947 30 23.8579 30 25.2632C30 27.8842 27.99 30 25.5 30C23.01 30 21 27.8842 21 25.2632C21 23.8579 21.585 22.5947 22.5 21.7263V11.0526C22.5 9.31579 23.85 7.89474 25.5 7.89474ZM25.5 9.47368C24.675 9.47368 24 10.1842 24 11.0526V12.6316H27V11.0526C27 10.1842 26.325 9.47368 25.5 9.47368ZM15 4.24737L7.5 11.3526V23.6842H18.15L18 25.2632L18.15 26.8421H4.5V14.2105H0L15 0L21.6 6.25263C20.835 6.94737 20.25 7.84737 19.875 8.85789L15 4.24737Z" fill="#ADFBFF"/>
</svg>
