<svg width="25" height="17" viewBox="0 0 25 17" fill="none" xmlns="http://www.w3.org/2000/svg">
<path d="M24.375 16.875H18.75V13.125C18.7505 12.6279 18.9482 12.1512 19.2997 11.7997C19.6512 11.4482 20.1279 11.2505 20.625 11.25H22.5V9.375H18.75V7.5H22.5C22.9971 7.5005 23.4738 7.6982 23.8253 8.04972C24.1768 8.40125 24.3745 8.87787 24.375 9.375V11.25C24.3745 11.7471 24.1768 12.2238 23.8253 12.5753C23.4738 12.9268 22.9971 13.1245 22.5 13.125H20.625V15H24.375V16.875ZM15 13.125H11.25C10.7529 13.1245 10.2762 12.9268 9.92472 12.5753C9.5732 12.2238 9.3755 11.7471 9.375 11.25V1.875C9.3755 1.37787 9.5732 0.901246 9.92472 0.549723C10.2762 0.1982 10.7529 0.000496384 11.25 0H15C15.4971 0.000496384 15.9738 0.1982 16.3253 0.549723C16.6768 0.901246 16.8745 1.37787 16.875 1.875V11.25C16.8745 11.7471 16.6768 12.2238 16.3253 12.5753C15.9738 12.9268 15.4971 13.1245 15 13.125ZM11.25 1.875V11.25H15V1.875H11.25ZM7.5 13.125H1.875C1.37787 13.1245 0.901246 12.9268 0.549723 12.5753C0.1982 12.2238 0.000496384 11.7471 0 11.25V1.875C0.000496384 1.37787 0.1982 0.901246 0.549723 0.549723C0.901246 0.1982 1.37787 0.000496384 1.875 0H7.5V1.875H1.875V11.25H7.5V13.125Z" fill="#ADFBFF"/>
</svg>
